<svg width="64" height="6" viewBox="0 0 64 6" fill="none" xmlns="http://www.w3.org/2000/svg">
<path fill-rule="evenodd" clip-rule="evenodd" d="M3.2 6C4.96731 6 6.4 4.65685 6.4 3C6.4 1.34315 4.96731 0 3.2 0C1.43269 0 0 1.34315 0 3C0 4.65685 1.43269 6 3.2 6Z" fill="white"/>
<path fill-rule="evenodd" clip-rule="evenodd" d="M17.6 6C19.3673 6 20.8 4.65685 20.8 3C20.8 1.34315 19.3673 0 17.6 0C15.8327 0 14.4 1.34315 14.4 3C14.4 4.65685 15.8327 6 17.6 6Z" fill="white"/>
<path fill-rule="evenodd" clip-rule="evenodd" d="M32 0H46.4C48.1674 0 49.6 1.34315 49.6 3C49.6 4.65685 48.1674 6 46.4 6H32C30.2327 6 28.8 4.65685 28.8 3C28.8 1.34315 30.2327 0 32 0Z" fill="white"/>
<path fill-rule="evenodd" clip-rule="evenodd" d="M60.8 6C62.5673 6 64 4.65685 64 3C64 1.34315 62.5673 0 60.8 0C59.0327 0 57.6 1.34315 57.6 3C57.6 4.65685 59.0327 6 60.8 6Z" fill="white"/>
</svg>
