<svg width="22" height="14" viewBox="0 0 22 14" fill="none" xmlns="http://www.w3.org/2000/svg">
<path fill-rule="evenodd" clip-rule="evenodd" d="M11.6491 5.00104C10.6991 2.31104 7.89912 0.501037 4.76912 1.12104C2.47912 1.58104 0.619116 3.41104 0.139116 5.70104C-0.680884 9.57104 2.25912 13.001 5.99912 13.001C8.60912 13.001 10.8291 11.331 11.6491 9.00104H15.9991V11.001C15.9991 12.101 16.8991 13.001 17.9991 13.001C19.0991 13.001 19.9991 12.101 19.9991 11.001V9.00104C21.0991 9.00104 21.9991 8.10104 21.9991 7.00104C21.9991 5.90104 21.0991 5.00104 19.9991 5.00104H11.6491ZM5.99912 9.00104C4.89912 9.00104 3.99912 8.10104 3.99912 7.00104C3.99912 5.90104 4.89912 5.00104 5.99912 5.00104C7.09912 5.00104 7.99912 5.90104 7.99912 7.00104C7.99912 8.10104 7.09912 9.00104 5.99912 9.00104Z" fill="#DFE2E6"/>
<mask id="mask0" mask-type="alpha" maskUnits="userSpaceOnUse" x="0" y="0" width="22" height="14">
<path fill-rule="evenodd" clip-rule="evenodd" d="M11.6491 5.00104C10.6991 2.31104 7.89912 0.501037 4.76912 1.12104C2.47912 1.58104 0.619116 3.41104 0.139116 5.70104C-0.680884 9.57104 2.25912 13.001 5.99912 13.001C8.60912 13.001 10.8291 11.331 11.6491 9.00104H15.9991V11.001C15.9991 12.101 16.8991 13.001 17.9991 13.001C19.0991 13.001 19.9991 12.101 19.9991 11.001V9.00104C21.0991 9.00104 21.9991 8.10104 21.9991 7.00104C21.9991 5.90104 21.0991 5.00104 19.9991 5.00104H11.6491ZM5.99912 9.00104C4.89912 9.00104 3.99912 8.10104 3.99912 7.00104C3.99912 5.90104 4.89912 5.00104 5.99912 5.00104C7.09912 5.00104 7.99912 5.90104 7.99912 7.00104C7.99912 8.10104 7.09912 9.00104 5.99912 9.00104Z" fill="white"/>
</mask>
<g mask="url(#mask0)">
</g>
</svg>
